<svg xmlns="http://www.w3.org/2000/svg" xmlns:xlink="http://www.w3.org/1999/xlink" viewBox="0 0 434.4 108.67"><defs><mask id="a" x="0" y="0" width="356.26" height="108.67" maskUnits="userSpaceOnUse"><g transform="translate(-264.6 -421.83)"><polygon points="264.6 421.83 620.86 421.83 620.86 530.5 264.6 530.5 264.6 421.83" style="fill:#fff"/></g></mask><mask id="b" x="260.9" y="0" width="173.5" height="108.67" maskUnits="userSpaceOnUse"><g transform="translate(-264.6 -421.83)"><polygon points="525.5 421.83 699 421.83 699 530.5 525.5 530.5 525.5 421.83" style="fill:#fff"/></g></mask></defs><title>Formula 1 logo - Brandlogos.net</title><g style="mask:url(#a)"><path d="M264.6,530.5l76-76c27.51-27.51,42.4-32.7,94.2-32.7H620.86l-37.77,37H442.88c-38.2,0-48,3-66.85,21.7L325.81,530.5Z" transform="translate(-264.6 -421.83)" style="fill:#e10500"/></g><path d="M446.64,469.15c-38.2,0-45.58,1.74-62.8,19l-42.11,42.4h56.72l13.46-13.75c8-8.25,11.29-10.27,30.24-10.27h92.75l37.77-37.33Z" transform="translate(-264.6 -421.83)" style="fill:#e10500"/><g style="mask:url(#b)"><polygon points="369.57 0 260.9 108.67 325.29 108.67 434.4 0 369.57 0" style="fill:#e10500"/></g><polygon points="365.69 90.55 380.35 90.55 380.35 93.29 374.59 93.29 374.59 108.67 371.42 108.67 371.42 93.29 365.69 93.29 365.69 90.55" style="fill:#e10500"/><polygon points="383.29 90.55 387.75 90.55 392.75 104.73 392.8 104.73 397.67 90.55 402.08 90.55 402.08 108.67 399.06 108.67 399.06 94.69 399.01 94.69 393.99 108.67 391.38 108.67 386.35 94.69 386.3 94.69 386.3 108.67 383.29 108.67 383.29 90.55" style="fill:#e10500"/></svg>