<svg xmlns="http://www.w3.org/2000/svg" xmlns:xlink="http://www.w3.org/1999/xlink" viewBox="0 0 459 122.4"><defs><linearGradient id="a" x1="61.76" y1="957.33" x2="61.76" y2="960.8" gradientTransform="translate(-71.84 -8507.44) scale(9.45)" gradientUnits="userSpaceOnUse"><stop offset="0" stop-color="#838587"/><stop offset="0.5" stop-color="#909295"/><stop offset="0.7" stop-color="#797a7d"/><stop offset="1" stop-color="#4e4f51"/></linearGradient></defs><title>Red Bull Racing logo - Brandlogos.net</title><path d="M320.69,551.32c0-5.9-4.17-9.55-11.11-9.72H282.5V573H287V561.57h21.7c4,0,6.25,1.91,6.25,5.21V573h4.69v-6.25a7.78,7.78,0,0,0-4.69-7.29,8.3,8.3,0,0,0,5.73-8.16Zm-11.28,6.25H287.19V545.77h22.22c6.08,0,6.6,4.51,6.6,5.9S315.49,557.57,309.41,557.57Zm91-9.72c-2.26-4.69-5-6.6-9.2-6.6s-6.94,1.91-9.2,6.6l-12,24.48-.35.69h4.86l.17-.35,4.17-8.68h24.65l4.17,8.68.17.35h4.86l-.35-.69ZM381.11,560l5.38-10.94c1.22-2.6,2.6-3.65,4.86-3.65,2.08,0,3.47,1,4.86,3.65L401.6,560Zm79.51-2.6c0,10.59,4.69,15.63,14.58,15.8h24.65v-4.51H475.56c-7.47,0-10.24-3.13-10.24-11.28s2.78-11.28,10.24-11.28h24.31V541.6H475.21c-10.24.17-14.58,5-14.58,15.8Zm90.8,15.8h4.51V541.77h-4.51Zm93.75-4.51c-4.34,0-5.38-1.39-13.19-12l-.35-.52c-8.51-11.28-10.76-14.41-18.23-14.41h-3.82V573.2h4.51V546.29c4.17,0,5,1.39,12.85,11.46l.87,1.22c8.51,11.11,10.94,14.24,18.06,14.24h3.82V541.77h-4.51Zm91.67-11.81v11.81h-20c-7.47,0-10.24-3.13-10.24-11.28s2.78-11.28,10.24-11.28H741V541.6H716.53c-9.9.17-14.58,5-14.58,15.63s4.69,15.63,14.58,15.8h24.83V556.88Z" transform="translate(-282.5 -450.8)" style="fill:url(#a)"/><path d="M480.25,483.44v19.44a6.08,6.08,0,0,1-12.15,0V483.44H457.33V505c0,7.29,7.47,13.19,16.84,13.19,9.2,0,16.84-5.9,16.84-13.19V483.44ZM515,460.35v56.42h10.76V460.35Zm-18.23,56.6H507.5v-56.6H496.74Zm-52.6-29.34a14.23,14.23,0,0,0,4.69-10.42,14.58,14.58,0,0,0-3.82-9.72c-2.6-2.78-7.12-4.34-13.19-4.34H413.4v53.82h23.79c9-.17,16.49-6.94,16.49-15.45C453.34,495.25,451.43,490.91,444.13,487.61Zm-9.2,20H424.69V472.33h7.12a6.09,6.09,0,0,1,5.73,6.08,5.78,5.78,0,0,1-5.73,5.73H428v9.72h6.77a6.82,6.82,0,0,1,6.77,6.94c0,3.82-2.26,6.42-6.6,6.77ZM318.44,478.93a16.08,16.08,0,0,0-16.15-16H282.67v53.82h11.46V472.33H300a7.23,7.23,0,0,1,7.47,7.12c0,3.82-3.47,7.12-7.64,7.12h-2.6v12.85l11.46,17.71h13.19l-15.8-22.57a16.32,16.32,0,0,0,12.33-15.63Zm20.14,3.13a17.75,17.75,0,0,0-17.71,18.06,18,18,0,0,0,17.71,18.06c7.47,0,13.37-3.47,16.32-8.68l-8.68-4a7.24,7.24,0,0,1-6.77,4.17,7,7,0,0,1-7.29-6.77v-.35h23.79c0-.69.17-1.56.17-2.26C355.94,488.48,348.3,482.05,338.58,482.05Zm-6.42,14.06a6.6,6.6,0,1,1,13.19,0Zm66.32,20.83V460.52H387.71v26.74a15.23,15.23,0,0,0-10.76-4.51c-8.85,0-16.15,7.81-16.15,17.53s7.29,17.53,16.32,17.53a15.39,15.39,0,0,0,10.94-4.69v3.82Zm-18.23-8.33c-4.34,0-7.81-3.82-7.81-8.68,0-4.69,3.47-8.68,7.81-8.68s7.81,3.82,7.81,8.68S384.41,508.61,380.24,508.61Z" transform="translate(-282.5 -450.8)" style="fill:#ea1c2d"/><circle cx="362.16" cy="36.81" r="36.81" style="fill:#fcd700"/><path d="M740.84,512.26c0-.17-.17-.17-.17-.35a1.31,1.31,0,0,0-.17-.69,6.17,6.17,0,0,0-.35-1.74,3,3,0,0,0-2.26-1.74,1.33,1.33,0,0,0-.35-.87,7.35,7.35,0,0,0-2.26-1.91c-.17-.17-.35-.35-.52-.35l-.17-.17a2.8,2.8,0,0,0-1.56-.52,3.3,3.3,0,0,0-2.6,1.39,3.22,3.22,0,0,1-.35-1.22,5.37,5.37,0,0,1-.35-1.39v-.17a3.51,3.51,0,0,0-2.6-2.6c-.52,0-1-.17-1.39-.17a6.57,6.57,0,0,1-1.39-.17.54.54,0,0,1,.17-.35,2.47,2.47,0,0,0,.35-1,9.61,9.61,0,0,0,.35-4.51c.35,0,.87.17,1.39.17a12.88,12.88,0,0,0,4.34-.87,8.56,8.56,0,0,0,5-7.81V485c-.35-3.13-2.08-6.08-5.38-9a8.18,8.18,0,0,0,2.6-1c2.43-1.56,3.47-4.51,2.78-7.81v-.17a2.16,2.16,0,0,0-2.08-1.91,2,2,0,0,0-1.39.52l-.17.17-.52.52a5.86,5.86,0,0,1-2.08.69c-.52.17-1.22.35-1.91.52-3,1-4.86,2.6-5.56,4.69-.52,1.22-.17,2.78.52,4.34v.17a16.52,16.52,0,0,0,3.3,3.65c1.56,1.56,3.13,3,3.47,4.69,0,.35.17.87-.87,1.74a4.15,4.15,0,0,1-1.56.35,8.17,8.17,0,0,1-2.78-.69c-1.22-.69-2.6-1.56-3.82-2.43a30.48,30.48,0,0,0-6.6-3.65,12.74,12.74,0,0,0-3.47-.87,9.07,9.07,0,0,1-3.47-1.22l-.17-.17a5.28,5.28,0,0,1-1.22-.87,12.12,12.12,0,0,0-4.17-2.26,7.64,7.64,0,0,0-1.74-.35c-.69-.17-1-.17-1.22-.35-.35-.17-.52-.35-.87-.52a23.85,23.85,0,0,0-3.47-2.26,27.79,27.79,0,0,0-6.42-2.08c-.17,0-.35-.35-.69-.69a10.29,10.29,0,0,0-1.39-1.39,9.75,9.75,0,0,0-6.25-2.6h-.69a7.94,7.94,0,0,0-3.82,1.91c-1.91,1.74-4,3.13-6.08,4.69a54.94,54.94,0,0,0-9.2,7.81c-3,3.13-4,6.94-5,10.24a5.07,5.07,0,0,0-.35,1.56c-.17.87-.52,1.91-.69,2.78-1.22,4.69-2.26,9.2-6.6,12a2.47,2.47,0,0,0-1,2.08,2.69,2.69,0,0,0,1.39,1.91A3.74,3.74,0,0,0,649,510a1.58,1.58,0,0,0,.52,1.22,2.48,2.48,0,0,0,1.91.87c3,0,5.21-1.74,6.94-3.47A6.26,6.26,0,0,0,661,510h.69a8.7,8.7,0,0,1,3-.17c.87.35,1.74.69,2.78,1,.69.17,1.39.52,2.08.69l.35.17h.35a4.28,4.28,0,0,0,3.47-2.43V509c0-.17.17-.35.17-.52l.17.35a6.85,6.85,0,0,0,1,2.6,2.8,2.8,0,0,0,2.26,1h1l.17.17a5,5,0,0,0,1.74,1.22,12.79,12.79,0,0,0,2.43.69,19,19,0,0,1,3,.87h.17a10.6,10.6,0,0,0,2.26.52,4.48,4.48,0,0,0,2.78-1,5,5,0,0,0,1.74-2.78.64.64,0,0,0,.52-.17c1.39-.52,2.6-3,2.6-3,.17-.17.17-.35.35-.52a2.8,2.8,0,0,0,.52-1.56,2.59,2.59,0,0,0-2.26-2.43h-3.47a1.57,1.57,0,0,0-.87.17c-.17-.17-.35-.69-.69-.87h2.26a35.79,35.79,0,0,0,4.51-.52,26.88,26.88,0,0,1,3.82-.17h.35a6.51,6.51,0,0,1,1.74.17c.52,0,1.22.17,1.91.17h.69a7.38,7.38,0,0,0,1.91-.35c0,.35.17.69.17,1.22l.17.35a8.12,8.12,0,0,0,3.3,5.21l.35.17a10.06,10.06,0,0,0,3.65,1.56H716a8.27,8.27,0,0,1,6.6,1.56l.17.17.52.52A15,15,0,0,0,725,515a5.07,5.07,0,0,0,1.56.35,4.41,4.41,0,0,0,2.08-.52c0,.17.17.17.17.35a9.54,9.54,0,0,0,1.22,1.56,4.61,4.61,0,0,0,3.3,1.22h2.26c.35,0,.52,0,.52-.17a2.14,2.14,0,0,0,1.22.35h.52l2.08-.69a3.09,3.09,0,0,0,1.39-1.22c.35-2.43,0-3.3-.52-4Zm-66.15-10.42-.17-.17c0-.17-.17-.17-.17-.35a10,10,0,0,1-.69-1.22c.69,0,1.22.17,1.91.17Zm-31.25,2.78-1-.52a7.51,7.51,0,0,1-2.26-2.78l-1-1.56a8,8,0,0,0-1.22-1.22l-.17-.17a43.42,43.42,0,0,1-2.78-11.11,10,10,0,0,0-1.39-4,78.73,78.73,0,0,0-6.6-8.51l-.52-.52-.17-.17-7.81-6.42-.17-.17a11.78,11.78,0,0,0-3.47-1.91,10.05,10.05,0,0,0-6.77.17h-.17a7.17,7.17,0,0,0-1.91,1.22,8.35,8.35,0,0,1-2.78,1.39h-.35a10,10,0,0,1-2.43.87,13.51,13.51,0,0,0-5.73,2.78l-1,1c-.35.35-.87.69-1,.87h-.35a10.22,10.22,0,0,0-7.29,2.6,13.89,13.89,0,0,1-4,2.78,6.48,6.48,0,0,1-2.08.35,13.16,13.16,0,0,0-2.78.52c-2.26.52-4.34,2.26-6.08,3.47a8.71,8.71,0,0,1-1.39,1c-.17.17-.35.17-.52.35-1.91,1-3.47,2.08-5.56,2.08h-.17a3.25,3.25,0,0,1-2.43-1.74,3.43,3.43,0,0,1,1-3.47,12,12,0,0,1,2.26-1.91,21.82,21.82,0,0,0,3.47-3.47,5.51,5.51,0,0,0-.35-6.94c-1.22-1.39-3.47-2.08-5.21-2.6h-.69a.64.64,0,0,1-.52-.17c-.35,0-.69-.17-1-.17a5.22,5.22,0,0,1-1.91-1l-1.56-1-1.39-.69-.87,1.39a5.23,5.23,0,0,0-.87,3.65V469a8.33,8.33,0,0,0,4.69,6.08c2.43,1,.17,0,.17.17a5.07,5.07,0,0,0,1.56.35,24.12,24.12,0,0,0-3.65,3.65c-2.26,2.43-2.26,6.25-1.39,8.85a9.23,9.23,0,0,0,7.64,5.73c.52,0,1,.17,1.56.17a13.4,13.4,0,0,0,2.6-.35c0,1.22.17,2.08.17,2.6a16.5,16.5,0,0,0,1,3.13,8.31,8.31,0,0,1-1.91.87c-.52,0-1,.17-1.39.17h-.69a2.59,2.59,0,0,0-1.56.69,8.73,8.73,0,0,0-1.39,2.6,12,12,0,0,1-.52,1.39c-.17.17-.35.52-.52.69a4,4,0,0,0-1.22-1.22,2.35,2.35,0,0,0-3,0c-.17.17-.35.17-.35.35H554c-.52.35-1.22.87-1.91,1.39a2.34,2.34,0,0,0-.87,1.56.64.64,0,0,0-.52.17,4.59,4.59,0,0,0-2.43,3c0,.52-.17,1.22-.17,1.56l-.17.17a2.38,2.38,0,0,0,0,3.13,7.61,7.61,0,0,0,3.47,1.22h.69a.61.61,0,0,0,.35-.17H553c.35,0,.69.17,1,.17a8.71,8.71,0,0,0,2.08.35,4.81,4.81,0,0,0,2.26-.52,5,5,0,0,0,2.26-2.43c.17-.17.17-.52.35-.69h.17a2.57,2.57,0,0,0,1.22.17,6.74,6.74,0,0,0,4.51-1.74c.35-.35.69-.52.87-.87.35-.35.69-.52.87-.87a2.57,2.57,0,0,1,1.22-.17,13.4,13.4,0,0,1,2.6.35,7.62,7.62,0,0,0,4.86-.52,22.14,22.14,0,0,0,2.08-1.22h.17a3.79,3.79,0,0,0,.87-.52c1.39-.69,2.43-2.43,3.13-3.65a8.91,8.91,0,0,0,.87-2.08h.35a15.2,15.2,0,0,0,2.78-.35,5.36,5.36,0,0,1,1.56-.17h.52c.87,0,2.08.17,3,.17.69,0,1.22.17,2.26.17h1.56A5.8,5.8,0,0,0,599,502c.17.17.52.69.69.87h-.17a3.08,3.08,0,0,0-1.74.69,3.71,3.71,0,0,0-2.43-.17,8.82,8.82,0,0,0-3,.52,2.51,2.51,0,0,0-1.74,1.22,2.13,2.13,0,0,0,.17,2.26c.52.87,1,1.74,1.56,2.78l.17.35a2.35,2.35,0,0,0,2.08,1h.52a.17.17,0,0,0,.17.17,6.58,6.58,0,0,0,1.74,2.26,5.48,5.48,0,0,0,3.3,1.22,4.81,4.81,0,0,0,1.56-.17,47.57,47.57,0,0,0,6.94-2.6h1a4.61,4.61,0,0,0,3.3-1.22l.17-.17v-.17c.35-.52.87-1.22,1.22-1.74v.17a3.54,3.54,0,0,0,3.47,2.26,9.69,9.69,0,0,0,4-1c.17,0,.35-.17.52-.17h.17a6.75,6.75,0,0,1,3.82-.17h.35a7.63,7.63,0,0,0,4-1.74,9.83,9.83,0,0,0,7.47,3.13h1a2.21,2.21,0,0,0,1.74-1.91v-.52a.64.64,0,0,0,.52-.17,2.22,2.22,0,0,0,1.74-1.91c1.22-1.22.87-2.08,0-2.43Zm-26-5a.61.61,0,0,1-.35.17,15.65,15.65,0,0,0-1.56,1.74,10.23,10.23,0,0,1-.69-1.39,8.6,8.6,0,0,0,2.26-.69c.35.17.35,0,.35.17Z" transform="translate(-282.5 -450.8)" style="fill:#fcd700"/><path d="M551.77,509.14h0a2.17,2.17,0,0,0-1.39,1.39c-.17,1.91-.17,2.08-.69,2.78a.53.53,0,0,0,0,.69,11.23,11.23,0,0,0,2.26.69c.17,0,.35-.52.69-1.74.17-.69.52-1.56.69-2.26a.54.54,0,0,0-.17-.35c-.35-.35-.87-1.22-1.39-1.22Zm2.26,0a.9.9,0,0,0,.69.35.64.64,0,0,0,.52-.17c1-.52,2.08-2.43,2.26-2.6.17-.35-.17-.69-.69-1a.77.77,0,0,0-.87,0c-.17.17-.35.17-.52.35-.52.35-1,.69-1.74,1.22a1.33,1.33,0,0,0-.35.87.64.64,0,0,0,.17.52s.35.52.52.52Zm88.54-3a4.52,4.52,0,0,0-1.22-.52,8.15,8.15,0,0,1-3-3.47,7,7,0,0,1-.87-1.56,4.6,4.6,0,0,0-.87-1c-.35-.17-.52-.52-.69-.69a46.56,46.56,0,0,1-3-12,8.27,8.27,0,0,0-1-3.13c-1.74-3-6.08-7.81-6.25-8.16l-.52-.52-.17-.17-7.64-6.42a20.63,20.63,0,0,0-3.13-1.74,10.25,10.25,0,0,0-2.43-.35,9.08,9.08,0,0,0-3.13.52,15.27,15.27,0,0,0-1.74,1,13.15,13.15,0,0,1-3.13,1.56,15.28,15.28,0,0,1-2.6.87,12.3,12.3,0,0,0-5,2.43l-1,1c-1.39,1.22-1.39,1.39-2.6,1.39a9.22,9.22,0,0,0-6.08,2.08,11.73,11.73,0,0,1-4.69,3.13,10,10,0,0,1-2.43.52c-1.22.17-1.39.17-2.6.35-1.91.35-3.82,1.91-5.38,3.13-.52.35-1.22,1-1.56,1.22-.17.17-.35.17-.52.35-2.08,1.22-4,2.26-6.42,2.26h-.17a4.5,4.5,0,0,1-4-3.13,5.38,5.38,0,0,1,1.56-5.38c.69-.69,1.56-1.39,2.26-2.08a28.81,28.81,0,0,0,3.3-3.13,3.91,3.91,0,0,0-.17-4.69c-1-1.22-3.47-1.74-4.34-1.91h-.52c-.52-.17-1-.17-1.74-.35-1.39-.35-2.6-1.56-3.82-2.26a3,3,0,0,0-.52,2.43c.17,1.91,1.91,3.82,3.65,4.69a.17.17,0,0,1,.17.17,6.17,6.17,0,0,0,1.74.35H561a2.2,2.2,0,0,1,1,.17c.35.17.69.35.69.87a.69.69,0,0,1-.35.69c-.35.17-.52.52-.87.69a24.67,24.67,0,0,0-4.34,4.17c-1.74,1.91-1.74,5-1,7.12a7.31,7.31,0,0,0,6.25,4.51c.35,0,.87.17,1.22.17a16.07,16.07,0,0,0,4-.69h.17s.17,0,.17.35a7.79,7.79,0,0,0,.17,1.91c0,1,.17,1.91.17,2.43.17.87.69,1.91.87,2.78a1.31,1.31,0,0,1,.17.69.83.83,0,0,1-.35,1,8.83,8.83,0,0,1-3.3,1.56c-.52,0-1.22.17-1.56.17h-.52c-.17,0-.35.17-.52.17a6.65,6.65,0,0,0-.87,1.91,6.17,6.17,0,0,1-.69,1.56,8.17,8.17,0,0,1-2.6,2.26c-.17.17-.52.35-.69.52a6.8,6.8,0,0,1-1.39,1.74,2,2,0,0,1-1.39.52,6.87,6.87,0,0,0-1.22,3.3.64.64,0,0,1-.17.52v.17h.17c.35,0,.87.17,1.22.17a5.91,5.91,0,0,0,1.74.17,3.27,3.27,0,0,0,1.39-.35,3.8,3.8,0,0,0,1.56-1.74,5.28,5.28,0,0,1,.87-1.22,1.33,1.33,0,0,1,.87-.35,1.57,1.57,0,0,1,.87.17c.35,0,.52.17.87.17a7.29,7.29,0,0,0,3.3-1.22c.35-.17.52-.52.87-.69a6.49,6.49,0,0,1,1.22-1,3.76,3.76,0,0,1,2.08-.35,15.29,15.29,0,0,1,3,.35,3.82,3.82,0,0,0,1.39.17,4.81,4.81,0,0,0,2.26-.52,22.14,22.14,0,0,0,2.08-1.22,3.79,3.79,0,0,0,.87-.52,7.63,7.63,0,0,0,2.43-3c.35-.69.87-2.08.87-2.08l-1.22-1v.17s-.87,1.39-1.39,2.08c-2.26,3.13-5.9,3.47-8.85,3.47h-.69a10.9,10.9,0,0,0-8.68,3.65c-.17.17-.35.17-.35,0v-.35a.64.64,0,0,1,.17-.52c2.26-3.3,6.25-3.65,9.38-3.82a13.08,13.08,0,0,0,5.56-1.39,8.91,8.91,0,0,0,3.82-4.69,20.48,20.48,0,0,0,.69-3.47c.17-.87.35-1.91.52-2.78a.17.17,0,0,1,.17-.17h.17a.37.37,0,0,1,.35.35,12.67,12.67,0,0,0,0,6.25c.35.87,1.22,1.22,2.43,1.22a13.62,13.62,0,0,0,2.43-.35,6.51,6.51,0,0,1,1.74-.17h.69a15.29,15.29,0,0,1,3,.35,13.4,13.4,0,0,0,2.6.35h1.39a2.93,2.93,0,0,0,1.74-.52c.35-.17.17-.52,0-1v-.17c-.17-.52-.35-1.39,0-1.74h.17a.17.17,0,0,1,.17.17c0,.17.17.35.17.52a3.85,3.85,0,0,0,.87,1.91,10.7,10.7,0,0,0,4,3.13,5.69,5.69,0,0,1,2.6,3.82c0,.87-.87,1.39-1.39,1.74a8.11,8.11,0,0,1-3.3,1c-.52,0-1-.35-1-.52a5.5,5.5,0,0,1-1.39-2.08l-1-1.56a2.48,2.48,0,0,0-2.26-.87,8.63,8.63,0,0,0-2.78.52c-.17,0-.35.17-.52.35s0,.52,0,.69l1.56,2.6.17.35c.17.17.35.17.69.17h.87a1,1,0,0,1,.87.35c.17.17.35.52.52.69a4.41,4.41,0,0,0,1.39,1.74,3.2,3.2,0,0,0,2.26.69,2.2,2.2,0,0,0,1-.17,34.13,34.13,0,0,0,6.94-2.78h1.22a3,3,0,0,0,2.08-.69,30.2,30.2,0,0,0,1.91-3.13,2.66,2.66,0,0,0,0-2.78,21,21,0,0,1-2.26-4.34c-.17,0-.35-.17-.52-.17a2.51,2.51,0,0,0-1.22-.35c-.52,0-.87.17-.87.52l2.6,5a1.84,1.84,0,0,1,.17,1.39,10.84,10.84,0,0,1-1.74,2.78.17.17,0,0,0-.17.17s-.17,0,0-.35a28.13,28.13,0,0,0,.52-3.47,35.37,35.37,0,0,0-2.43-4.51,3.08,3.08,0,0,1-.69-1.74.55.55,0,0,1,.52-.52c.35-.17.69-.17,1-.35.87-.17,1.91-.35,2.26-.87a12.4,12.4,0,0,0,2.08-5.56.61.61,0,0,1,.17-.35.17.17,0,0,1,.17.17,9,9,0,0,1-1.39,6.25c0,.17-.17.35-.17.52a.61.61,0,0,0,.17.35c.52.35,2.26.17,3.65-.52a13.49,13.49,0,0,0,2.78-.35c.35,0,.52-.17.87-.17a.17.17,0,0,1,.17.17,8.81,8.81,0,0,0-1.56,3.13l-.69.69a3.72,3.72,0,0,0-1.74,2.78.34.34,0,0,0,.35.35c.17,0,.35,0,.35-.17.17,0,.35-.17.52-.17s.17.17.17.35l-1,1.39a2,2,0,0,0,0,1.74c.17.35,0,.52.17.87a1.74,1.74,0,0,0,1.74,1,11.34,11.34,0,0,0,3.47-.87c.17,0,.35-.17.52-.17a8.13,8.13,0,0,1,4.69-.35,6.43,6.43,0,0,0,3.82-2.08,2.4,2.4,0,0,1,1.56.87,8.25,8.25,0,0,0,6.25,2.6h.52c.35,0,.35-.17.35-.35s-.17-.35-.35-.52l-1.39-.69a5.41,5.41,0,0,1-2.78-2.78,14.56,14.56,0,0,0-1.56-3.3c-.17-.17-.17-.35-.35-.52-.17-.35-.35-.52-.52-.87,1.56.52,2.43,1.74,3.47,3.65a6,6,0,0,0,4.69,3h.87a.61.61,0,0,0,.17-.35c-.17.52-.17.35-.17.35ZM614.8,483.27a.17.17,0,0,1-.35,0,17.72,17.72,0,0,0-1-4c-.17-.35-.35-.52-.52-.87-.35-.52-.69-.87-.35-1.39a.9.9,0,0,1,.69-.35h.35a3.29,3.29,0,0,1,1.22,1.39,9.52,9.52,0,0,1,0,5.21Zm13,20.49a1.36,1.36,0,0,1-.35.87,5.14,5.14,0,0,1-1.74.35,3.53,3.53,0,0,1-.87-.17c-.17-.17,0-.52,0-.52a3.09,3.09,0,0,1,1.91-1.74.84.84,0,0,1,.69,0c.35.17.35,1,.35,1.22Zm3.47-8.16a3.53,3.53,0,0,1-.17.87c0,.17-.17.35-.52.35s-.35-.52-.35-.52a4.17,4.17,0,0,0-.35-1.74c-.35-.52-1.56-2.26-2.26-2.08a2.64,2.64,0,0,0-1,.69c-.35.52-.35.69-.52.69s-.35,0-.35-.35a2.74,2.74,0,0,1,0-1.22,8.46,8.46,0,0,1,.52-1.22,5.71,5.71,0,0,1,.52-1,1.12,1.12,0,0,1,.87-.52,1.35,1.35,0,0,1,1,.52c.52.69.52.69.52.87a12.79,12.79,0,0,0,.87,1,4,4,0,0,1,1,2.08,4.81,4.81,0,0,1,.17,1.56ZM600.91,506l.52,1c.35.69.52,1.22.87,1.22h.35a4.09,4.09,0,0,0,2.26-.87c.35-.35.17-.52.17-.87,0-.17-.17-.17-.17-.35a2.47,2.47,0,0,1-.35-1c-.17-.69-.35-1.22-1-1a16.84,16.84,0,0,1-3,.17.86.86,0,0,0-.52.17c-.17.35.17.52.52.87C600.73,505.66,600.91,505.84,600.91,506ZM739.28,513a1,1,0,0,1-.17-.69c0-.35-.17-.52-.17-.87a2.51,2.51,0,0,0-.35-1.22,1.46,1.46,0,0,0-1.22-.69.64.64,0,0,0-.52.17c-.69.35-1.22.69-1,1.56.35,1.22.52,2.08.87,3.13,0,.17.17.69.35.69l2.08-.69a.17.17,0,0,0,.17-.17c.52-.35.35-.69,0-1.22Zm-3-5a6.8,6.8,0,0,0-1.74-1.39,2.4,2.4,0,0,1-.69-.52h-.17a.64.64,0,0,0-.52-.17,1.85,1.85,0,0,0-1.39,1,5.24,5.24,0,0,0,1.22,1.91l.17.17a1.31,1.31,0,0,0,1.22.69,2.31,2.31,0,0,0,1.22-.52c.17-.35.87-.87.69-1.22Zm-48.61-3.13h-3c-.35,0-.69,1.39-.69,2.08.17.87,1,1,1.74,1.22a7.52,7.52,0,0,0,.87.17,1,1,0,0,0,1-.52,9.75,9.75,0,0,0,.69-2.6V505a1.31,1.31,0,0,0-.69-.17Zm46.88,6.08a3.5,3.5,0,0,1-2.78-1.91c-.17-.35-.52-.52-.69-.87a6.49,6.49,0,0,0-1.22-1c-.35-.35-.87-.69-.87-1a10.78,10.78,0,0,1-.52-1.74,11.06,11.06,0,0,0-.35-1.22v-.17A1.94,1.94,0,0,0,727,501.5a3,3,0,0,1-1.22-.17c-1,0-2.26-.17-2.78-1a1.83,1.83,0,0,1,0-2.08c.17-.35.17-.52.35-.87a7.94,7.94,0,0,0,.17-4c0-.17-.17-.35-.17-.52-.17-.52-.35-1.22-.17-1.39s.17-.17.52-.17a1.31,1.31,0,0,1,.69.17c.17,0,.35,0,.35.17a7.46,7.46,0,0,0,2.08.35,13.52,13.52,0,0,0,3.65-.69c2.08-1,4.17-3.3,4-6.08-.35-2.78-2.08-5.56-5.38-8.51l-.17-.17c-.52-.35-1-.87-1-1.22s1-.69,1.74-.87c.17,0,.35,0,.35-.17h.17a10,10,0,0,0,2.43-.87c2.43-1.56,2.26-4.51,2.08-6.08v-.17c0-.17-.17-.52-.35-.52h-.17l-.17.17a3,3,0,0,1-.87.69,6.61,6.61,0,0,1-2.6.87c-.52.17-1.22.17-1.74.35-2.43.87-3.82,2.08-4.34,3.65a3.19,3.19,0,0,0,.35,2.78,26.69,26.69,0,0,0,3,3.3c1.74,1.74,3.47,3.3,4,5.73a3.51,3.51,0,0,1-1.74,3.47,5.75,5.75,0,0,1-2.6.69,8.66,8.66,0,0,1-3.65-.87,30.57,30.57,0,0,1-4-2.43,27.43,27.43,0,0,0-6.25-3.47,10.54,10.54,0,0,0-3.13-.87,13,13,0,0,1-4.34-1.56c-.35-.35-.87-.52-1.22-.87a7.42,7.42,0,0,0-3.65-1.91c-.52-.17-1-.17-1.39-.35a4.94,4.94,0,0,1-2.08-.69,3,3,0,0,1-.87-.69,32.56,32.56,0,0,0-3.13-2.08,31.12,31.12,0,0,0-6.08-1.91,2.77,2.77,0,0,1-1.56-1.22l-1-1c-1.74-1.39-3.3-2.26-5.21-2.26h-.52a5.29,5.29,0,0,0-2.78,1.39c-1.91,1.74-4.17,3.3-6.25,4.86a60.61,60.61,0,0,0-9,7.47c-2.6,2.78-3.65,6.25-4.51,9.55a5.07,5.07,0,0,0-.35,1.56c-.17.87-.52,1.91-.69,2.78-1.22,4.86-2.43,9.9-7.47,13a.37.37,0,0,0,.17.69,4.11,4.11,0,0,0,4.17-1.39,39.3,39.3,0,0,1,3.47-4.51.61.61,0,0,1,.35-.17c.17,0,.17.17.17.35a3.6,3.6,0,0,1-1,1.74,9.2,9.2,0,0,0-1,1.74,9.81,9.81,0,0,1-3,3.65.61.61,0,0,1-.35.17l-.17.17c0,.35.17.52.69.52,2.78,0,4.69-1.91,6.6-3.82a.61.61,0,0,1,.35-.17h.35c.17,0,.35.35.69.52a5.08,5.08,0,0,0,2.08,1.22,15.89,15.89,0,0,1,2.78-.17h.69c1,.35,2.08.69,3,1,.69.17,1.39.52,2.08.69.87,0,1.56-.87,2.08-1.56a2.41,2.41,0,0,0,0-1.56,7.52,7.52,0,0,0-.17-.87c.17-.17.35,0,.69,0h.69s.52-.35.35-.69a9,9,0,0,0-1-2.26,9.2,9.2,0,0,1-1-1.74,6.61,6.61,0,0,0-1.56-2.26,6.4,6.4,0,0,1-1.56-2.43v-.35c0-.17.35,0,.35,0,.35.17.69.52,1,.69a6.89,6.89,0,0,0,3.47,1.91,14.11,14.11,0,0,0,3.82.17c.35,0,.52-.35.52-.69a17.76,17.76,0,0,1-1.39-3.65,11.08,11.08,0,0,1-.35-5.56c0-.17.17-.17.35-.17s.35.35.35.52v.17c.17,2.6.35,5.21,1.91,7.29a4,4,0,0,0,1.56,1.39,5.28,5.28,0,0,1,1.22.87,1.69,1.69,0,0,1,.17,1.56l-1.91,3a5.87,5.87,0,0,0-1,2.08,8.37,8.37,0,0,0,0,2.08v.17a.17.17,0,0,1-.17-.17,3.62,3.62,0,0,1-.52-3.65c.35-.69,1.91-3,2.26-3.65.17-.17.35-.52.17-.69a5.2,5.2,0,0,0-1.74-.69c-.35,0-.52.35-.69.52a.17.17,0,0,1-.17.17l-2.43,4.34v.17a2,2,0,0,0-.17,1.39c.17.69.35,1.39.52,1.91a.64.64,0,0,0,.17.52,4.89,4.89,0,0,0,.69,1.91,1.33,1.33,0,0,0,.87.35h1.39a1.73,1.73,0,0,1,.87.69,3,3,0,0,0,.87.69c.69.17,1.56.52,2.26.69,1,.35,2.08.52,3.13.87a6.17,6.17,0,0,0,1.74.35,1.88,1.88,0,0,0,1.56-.69,3,3,0,0,0,1.22-2.26c.17-.87.52-.87,1-.87a1,1,0,0,0,.69-.17,5.37,5.37,0,0,0,1.56-2.08,1.32,1.32,0,0,0,.35-.69.64.64,0,0,0,.17-.52c0-.52-.35-.52-.52-.52h-3.47c-1,0-1.56,1-1.91,1.91l-.52,1a1.82,1.82,0,0,1-1.56.87c-.17,0-.69-.17-.87-.17-1.39-.35-2.78-.69-3.47-2.08a1.67,1.67,0,0,1,.17-1.22,21,21,0,0,1,2.78-2.78,6.82,6.82,0,0,0,3.65-2.6c.17-.17.17-.52.35-.69.17-.35.17-.69.69-1,.17-.17.35,0,.52.17a4.4,4.4,0,0,1-.35,2.08c0,.17-.17.35-.17.52v.17H691a17.12,17.12,0,0,0,4.17-.52,34.15,34.15,0,0,1,4.17-.52h.52a7.12,7.12,0,0,1,1.91.17c.52,0,1.22.17,1.74.17h.69a3.32,3.32,0,0,0,3.47-2.26c.35-1,.35-3-.17-5.73v-.17c0-.17,0-.17.17-.35s.35,0,.35.17a26.13,26.13,0,0,1,1.22,5.73,10.14,10.14,0,0,0,1.91,4.51,7,7,0,0,0,5.9,3.13c.52,0,1.22-.17,1.74-.17h.87a10,10,0,0,1,7.81,3.82v.17a.61.61,0,0,1-.35.17l-.35-.17c-1.74-1.39-3.47-2.78-5.73-3-.35,0-.87-.17-1.22-.17a7.12,7.12,0,0,0-1.91.17c-.69,0-1.22.17-1.74.17a8.72,8.72,0,0,1-2.08-.35c-2.6-.87-4.69-3.82-5.38-5.73a.61.61,0,0,0-.35-.17h-.17c-.35.17-.35.35-.35.52a12.82,12.82,0,0,0,.35,2.08c.35,1.39.52,3.13,2.6,4.51a8.25,8.25,0,0,0,3.3,1.56h1.22a8.45,8.45,0,0,1,2.08-.17,9.91,9.91,0,0,1,6.08,2.08,3,3,0,0,1,.87.69,5.28,5.28,0,0,0,1.22.87,2.2,2.2,0,0,0,1,.17,2.12,2.12,0,0,0,1.56-.52,1,1,0,0,1,.69-.17c.69,0,1,.52,1.56,1.22.35.35.52.87,1,1.22a3,3,0,0,0,2.08.69H736a23.43,23.43,0,0,0-1.39-4.17Zm-69.27-6.08a1,1,0,0,1-.87.35,7.52,7.52,0,0,1-.87-.17c-.52-.35-.69-.87-.87-1.74a.64.64,0,0,1,.17-.52h.35a2.07,2.07,0,0,1,1.56.87c.35-.17.87.52.52,1.22Zm.87-10.94a1.32,1.32,0,0,1-.69.35c-.17-.17-.52-.35-.52-.69-.17-.35-.35-.52-.69-.52a1.33,1.33,0,0,0-.87.35c-.17.17-.69.52-.87.69-.69.69-1.56,1.39-1.74,2.26,0,.35,0,.35-.17.52a1.33,1.33,0,0,1-.35.87c-.17.17,0,0-.17,0s-.17,0-.35-.17c-.17,0-.17-.17-.17-.35a4.41,4.41,0,0,1,1.56-4,22.7,22.7,0,0,0,1.91-2.08c.35-.35.52-.69.87-1,.17-.17.52,0,1.22.69a23.77,23.77,0,0,1,1.39,2.43,1.08,1.08,0,0,0-.35.69Zm13-18.23-.87.87a17.5,17.5,0,0,0-3,3.3,7,7,0,0,0-.87,1.56l-.17.17H674a6.28,6.28,0,0,1,.17-2.43,10.41,10.41,0,0,1,3.82-4.69,1,1,0,0,1,.69-.17.9.9,0,0,1,.69.35,2.58,2.58,0,0,1-.17,1Z" transform="translate(-282.5 -450.8)" style="fill:#ea1c2d"/></svg>